<svg xmlns="http://www.w3.org/2000/svg" 
    xmlns:xlink="http://www.w3.org/1999/xlink" version="1.1" class="_1LGPcGiAwvNAySV0GUsZCr" viewBox="0 0 2108.04216977732 3102.0384301289755">
    <path d="M5.2,518.4908626362853L5,290.4V62.39999999999998H28.5V57.39999999999998H0V290.4L0.2,518.4908626362853H5.2ZM115,62.4V86.9H120V62.4H148.8V30.7H115V57.4H90.8V62.4H115ZM120,35.7H143.8V57.400000000000006H120V35.7ZM62.4,115.10000000000001V91.9H57.4V115.10000000000001H29V149.10000000000002H62.4V120.10000000000002H85.8V115.10000000000002H62.4ZM57.4,144.10000000000002H34V120.10000000000002H57.4V144.10000000000002ZM120,91.9H115V115.10000000000001H90.8V120.10000000000001H120V91.9ZM57.4,62.4V86.9H62.4V62.4H85.8V57.4H62.4V33.4H57.4V57.4H33.5V62.4H57.4ZM62.4,28.4V5H431.5161898555155V0H57.4V28.4H62.4ZM57.4,91.9V86.9H33.5V62.4H28.5V91.9H57.4ZM28.5,57.4H33.5V33.4H57.3V28.4H33.5V0H0V33.4H28.5V57.4ZM5,28.4V5H28.5V28.4H5ZM85.8,91.9V115.10000000000001H90.8V91.9H115V86.9H90.8V62.4H85.8V86.9H62.4V91.9H85.8ZM177.6,91.9V33.8H431.5161898555155V28.799999999999997H172.6V86.9H120V91.9H177.6ZM85.8,33.4V57.4H90.8V28.4H62.4V33.4H85.8ZM33.5,290.4V177.5H90.8V120.1H85.8V172.5H28.5V290.4L28.8,518.4908626362853H33.8L33.5,290.4ZM85.8,57.39999999999998H90.8V62.39999999999998H85.8V57.39999999999998ZM57.4,28.399999999999977H62.4V33.39999999999998H57.4V28.399999999999977ZM57.4,86.89999999999998H62.4V91.89999999999998H57.4V86.89999999999998ZM85.8,115.09999999999998H90.8V120.09999999999998H85.8V115.09999999999998ZM115,86.9H120V91.9H115V86.9ZM28.5,57.4H33.5V62.4H28.5V57.4ZM431.5161898555155,0H1690.314007044021V5H431.5161898555155V0ZM431.5161898555155,28.7H1690.314007044021V33.7H431.5161898555155V28.700000000000003ZM2045.6421697773199,5V28.5H2050.64216977732V0H1690.314007044021V5H2045.6421697773199ZM2045.6421697773199,115H2021.1421697773199V120H2045.6421697773199V148.8H2077.34216977732V115H2050.64216977732V90.8H2045.6421697773199V115ZM2072.34216977732,120V143.8H2050.64216977732V120H2072.34216977732ZM1992.94216977732,62.4H2016.14216977732V57.4H1992.94216977732V29H1958.94216977732V62.4H1987.94216977732V85.8H1992.94216977732V62.4ZM1963.94216977732,57.4V34H1987.94216977732V57.4H1963.94216977732ZM2045.64216977732,57.4H2021.14216977732V62.4H2045.64216977732V85.8H2050.6421697773203V62.4H2074.6421697773203V57.4H2050.6421697773203V33.5H2045.64216977732V57.4ZM2079.6421697773203,62.4H2103.04216977732V518.4908626362853H2108.04216977732V57.4H2079.6421697773203V62.4ZM1987.94216977732,120H2016.1421697773199V115H1992.94216977732V90.8H1987.94216977732V120ZM2074.64216977732,0V28.5H2050.64216977732V33.5H2074.64216977732V57.3H2079.64216977732V33.5H2108.04216977732V0H2074.64216977732ZM2103.04216977732,28.5H2079.64216977732V5H2103.04216977732V28.5ZM2074.64216977732,85.8H2050.64216977732V90.8H2079.64216977732V62.4H2074.64216977732V85.8ZM2016.1421697773199,85.8H1992.94216977732V90.8H2016.1421697773199V115H2021.1421697773199V90.8H2045.6421697773199V85.8H2021.1421697773199V62.4H2016.1421697773199V85.8ZM1817.6421697773199,33.5H1930.54216977732V90.8H1987.94216977732V85.8H1935.54216977732V28.5H1817.6421697773199L1690.314007044021,28.6V33.6L1817.6421697773199,33.5ZM2016.1421697773199,57.4H2021.1421697773199V33.5H2045.6421697773199V28.5H2016.1421697773199V57.4ZM2016.1421697773199,177.6H2074.2421697773198V518.4908626362853H2079.2421697773198V172.6H2021.1421697773199V120H2016.1421697773199V177.6ZM2045.6421697773199,85.8H2050.64216977732V90.8H2045.6421697773199V85.8ZM2016.1421697773199,115H2021.1421697773199V120H2016.1421697773199V115ZM2045.6421697773199,28.5H2050.64216977732V33.5H2045.6421697773199V28.5ZM2074.64216977732,57.4H2079.64216977732V62.4H2074.64216977732V57.4ZM1987.94216977732,85.8H1992.94216977732V90.8H1987.94216977732V85.8ZM2016.1421697773199,57.4H2021.1421697773199V62.4H2016.1421697773199V57.4ZM5.2,518.4908626362853H0.20000000000000018L1.9000000000000001,2609.760547869302H6.9L5.2,518.4908626362853ZM33.800000000000004,518.4908626362853H28.800000000000004L30.600000000000005,2609.760547869302H35.60000000000001L33.80000000000001,518.4908626362853ZM2103.04216977732,518.4908626362853H2108.04216977732V2609.760547869302H2103.04216977732V518.4908626362853ZM2074.34216977732,518.4908626362853H2079.34216977732V2609.760547869302H2074.34216977732V518.4908626362853ZM64.4,3097.0384301289755V3073.5384301289755H59.400000000000006V3102.0384301289755H431.5161898555155V3097.0384301289755H64.4ZM7,3039.6384301289754V2807.5384301289755L6.9,2609.760547869302H1.9000000000000004L2.0000000000000004,2807.5384301289755V3044.6384301289754H30.5V3039.6384301289754H7ZM64.4,2982.0384301289755V2953.238430128976H32.7V2987.0384301289755H59.400000000000006V3011.238430128976H64.4V2987.0384301289755H88.9V2982.0384301289755H64.4ZM59.400000000000006,2982.0384301289755H37.7V2958.238430128976H59.400000000000006V2982.0384301289755ZM64.4,3044.6384301289754H88.9V3039.6384301289754H64.4V3016.238430128976H59.400000000000006V3039.6384301289754H35.5V3044.6384301289754H59.4V3068.5384301289755H64.4V3044.6384301289754ZM117.10000000000001,3039.6384301289754H93.9V3044.6384301289754H117.10000000000001V3073.0384301289755H151.10000000000002V3039.6384301289754H122.10000000000002V3016.238430128976H117.10000000000002V3039.6384301289754ZM146.10000000000002,3044.6384301289754V3068.0384301289755H122.10000000000002V3044.6384301289754H146.10000000000002ZM93.9,2982.0384301289755V2987.0384301289755H117.10000000000001V3011.238430128976H122.10000000000001V2982.0384301289755H93.9ZM93.9,3044.6384301289754H88.9V3068.5384301289755H64.4V3073.5384301289755H93.9V3044.6384301289754ZM30.500000000000007,3011.238430128976V3039.6384301289754H35.50000000000001V3016.238430128976H59.400000000000006V3011.238430128976H30.5ZM59.400000000000006,3073.5384301289755V3068.5384301289755H35.400000000000006V3044.738430128976H30.400000000000006V3068.5384301289755H2V3102.0384301289755H35.4V3073.5384301289755H59.4ZM30.5,3097.0384301289755H7V3073.5384301289755H30.4V3097.0384301289755H30.5ZM30.9,2929.4384301289756H88.9V2982.0384301289755H93.9V2924.4384301289756H35.900000000000006V2807.5384301289755L35.60000000000001,2609.760547869302H30.60000000000001L30.90000000000001,2807.5384301289755V2929.4384301289756ZM93.9,3016.2384301289753H117.10000000000001V3011.2384301289753H93.9V2987.0384301289755H88.9V3011.238430128976H64.4V3016.238430128976H88.9V3039.6384301289754H93.9V3016.238430128976ZM292.4,3068.5384301289755H292.5 179.5V3011.2384301289753H122.1V3016.2384301289753H174.5V3073.5384301289755H292.5L431.5161898555155,3073.4384301289756V3068.4384301289756L292.4,3068.5384301289755ZM59.39999999999998,3068.5384301289755H64.39999999999998V3073.5384301289755H59.39999999999998V3068.5384301289755ZM59.39999999999998,3011.2384301289753H64.39999999999998V3016.2384301289753H59.39999999999998V3011.2384301289753ZM30.49999999999998,3039.6384301289754H35.49999999999998V3044.6384301289754H30.49999999999998V3039.6384301289754ZM117.09999999999997,3011.2384301289753H122.09999999999997V3016.2384301289753H117.09999999999997V3011.2384301289753ZM88.9,2982.0384301289755H93.9V2987.0384301289755H88.9V2982.0384301289755ZM88.9,3039.6384301289754H93.9V3044.6384301289754H88.9V3039.6384301289754ZM431.5161898555155,3097.0384301289755H1690.314007044021V3102.0384301289755H431.5161898555155V3097.0384301289755ZM431.5161898555155,3068.3384301289752H1690.314007044021V3073.3384301289752H431.5161898555155V3068.3384301289752ZM2045.6421697773199,3073.6384301289754V3097.0384301289755H1690.314007044021V3102.0384301289755H2050.64216977732V3073.6384301289754H2045.6421697773199ZM1993.04216977732,3039.6384301289754V3015.1384301289754H1988.04216977732V3039.6384301289754H1959.24216977732V3071.3384301289752H1993.04216977732V3044.6384301289754H2017.24216977732V3039.6384301289754H1993.04216977732ZM1988.04216977732,3066.3384301289752H1964.24216977732V3044.6384301289754H1988.04216977732V3066.3384301289752ZM1988.04216977732,3010.1384301289754H1993.04216977732V2986.9384301289756H2017.24216977732V2981.9384301289756H1988.04216977732V3010.1384301289754ZM2050.64216977732,3039.6384301289754V3015.1384301289754H2045.6421697773199V3039.6384301289754H2022.24216977732V3044.6384301289754H2045.6421697773199V3068.6384301289754H2050.64216977732V3044.6384301289754H2074.54216977732V3039.6384301289754H2050.64216977732ZM2103.04216977732,3039.6384301289754H2079.54216977732V3044.6384301289754H2108.04216977732V2609.760547869302H2103.04216977732V3039.6384301289754ZM2045.6421697773199,2986.9384301289756V3010.1384301289754H2050.64216977732V2986.9384301289756H2079.04216977732V2952.9384301289756H2045.6421697773199V2981.9384301289756H2022.24216977732V2986.9384301289756H2045.6421697773199ZM2050.64216977732,2957.9384301289756H2074.04216977732V2981.9384301289756H2050.64216977732V2957.9384301289756ZM2079.54216977732,3044.6384301289754H2074.54216977732V3068.6384301289754H2050.7421697773198V3073.6384301289754H2074.54216977732V3102.0384301289755H2108.04216977732V3068.6384301289754H2079.54216977732V3044.6384301289754ZM2103.04216977732,3073.6384301289754V3097.0384301289755H2079.54216977732V3073.6384301289754H2103.04216977732ZM2050.64216977732,3010.1384301289754V3015.1384301289754H2074.54216977732V3039.6384301289754H2079.54216977732V3010.1384301289754H2050.64216977732ZM1930.44216977732,3010.1384301289754V3068.2384301289753H1690.314007044021V3073.2384301289753H1935.44216977732V3015.1384301289754H1988.04216977732V3010.1384301289754H1930.44216977732ZM2022.2421697773198,3010.1384301289754V2986.9384301289756H2017.2421697773198V3010.1384301289754H1993.04216977732V3015.1384301289754H2017.24216977732V3039.6384301289754H2022.24216977732V3015.1384301289754H2045.6421697773199V3010.1384301289754H2022.24216977732ZM2022.2421697773198,3068.6384301289754V3044.6384301289754H2017.2421697773198V3073.6384301289754H2045.6421697773199V3068.6384301289754H2022.2421697773198ZM2074.54216977732,2811.6384301289754V2924.5384301289755H2017.2421697773198V2981.9384301289756H2022.2421697773198V2929.5384301289755H2079.54216977732V2811.6384301289754L2079.4421697773196,2609.760547869302H2074.4421697773196L2074.54216977732,2811.6384301289754ZM2017.2421697773198,3039.6384301289754H2022.2421697773198V3044.6384301289754H2017.2421697773198V3039.6384301289754ZM1988.04216977732,3010.1384301289754H1993.04216977732V3015.1384301289754H1988.04216977732V3010.1384301289754ZM2045.6421697773199,3068.6384301289754H2050.64216977732V3073.6384301289754H2045.6421697773199V3068.6384301289754ZM2074.54216977732,3039.6384301289754H2079.54216977732V3044.6384301289754H2074.54216977732V3039.6384301289754ZM2045.6421697773199,3010.1384301289754H2050.64216977732V3015.1384301289754H2045.6421697773199V3010.1384301289754ZM2017.24216977732,2981.9384301289756H2022.24216977732V2986.9384301289756H2017.24216977732V2981.9384301289756Z" fill="#ffef00"></path>
</svg>