<?xml version="1.0" standalone="no"?>
<!DOCTYPE svg PUBLIC "-//W3C//DTD SVG 20010904//EN"
 "http://www.w3.org/TR/2001/REC-SVG-20010904/DTD/svg10.dtd">
<svg version="1.0" xmlns="http://www.w3.org/2000/svg"
 width="684.000000pt" height="684.000000pt" viewBox="0 0 684.000000 684.000000"
 preserveAspectRatio="xMidYMid meet">
<metadata>
Created by potrace 1.11, written by Peter Selinger 2001-2013
</metadata>
<g transform="translate(0.000000,684.000000) scale(0.100000,-0.100000)"
fill="#000000" stroke="none">
<path d="M3458 6813 c-55 -64 -39 -207 43 -382 22 -46 48 -95 59 -108 10 -13
22 -37 25 -53 10 -44 48 -71 86 -60 16 5 33 9 37 9 4 0 14 13 22 28 9 15 28
47 43 70 15 24 27 49 27 58 0 8 4 15 9 15 5 0 14 14 21 31 7 17 25 47 38 68
53 77 93 234 69 272 -12 19 -37 26 -37 11 0 -4 -15 -6 -34 -4 -44 5 -84 -24
-133 -95 -42 -61 -62 -60 -81 5 -17 57 -111 152 -150 152 -16 0 -36 -8 -44
-17z"/>
<path d="M2415 6331 c-16 -4 -57 -5 -90 -3 -70 5 -168 -13 -185 -33 -9 -10
-24 -13 -49 -9 -27 4 -48 -1 -84 -20 -53 -29 -77 -32 -95 -14 -13 13 -12 13
-164 -139 -37 -37 -74 -83 -83 -104 -9 -20 -27 -41 -39 -47 -18 -8 -22 -16
-18 -41 2 -17 1 -39 -3 -48 -5 -10 -7 -26 -6 -35 1 -10 -2 -18 -6 -18 -5 0 -9
-28 -9 -62 -1 -47 3 -66 15 -75 13 -10 14 -15 3 -33 -7 -11 -10 -25 -7 -30 3
-4 8 -30 11 -56 4 -37 3 -46 -9 -41 -29 11 -42 -10 -40 -70 2 -78 74 -261 126
-317 14 -15 32 -37 41 -49 l15 -22 0 28 c1 26 20 39 22 15 6 -52 8 -66 14 -88
4 -14 9 -38 12 -55 3 -16 14 -38 24 -48 11 -10 19 -24 19 -32 0 -45 128 -188
201 -226 28 -14 38 -26 42 -51 7 -51 -7 -67 -29 -32 -10 16 -19 31 -20 33 -2
2 -25 -2 -51 -8 -26 -6 -88 -13 -138 -16 -49 -3 -111 -9 -136 -13 -49 -9 -109
-45 -109 -66 0 -8 -13 -16 -29 -19 -19 -4 -33 -16 -43 -39 -9 -18 -24 -51 -34
-73 -10 -22 -21 -42 -24 -45 -4 -3 -22 -39 -40 -80 -19 -41 -39 -82 -46 -90
-6 -8 -23 -42 -37 -75 -36 -86 -40 -98 -38 -112 1 -7 -3 -13 -8 -13 -6 0 -23
-23 -37 -52 -15 -29 -37 -69 -51 -89 -23 -35 -24 -38 -9 -73 12 -29 13 -41 4
-56 -10 -15 -9 -23 4 -37 21 -24 29 -73 12 -73 -7 0 -16 -10 -20 -22 -3 -13
-12 -30 -19 -38 -7 -8 -18 -35 -25 -60 -6 -25 -19 -67 -29 -95 -10 -27 -22
-68 -26 -90 -4 -22 -10 -44 -13 -50 -4 -5 -8 -19 -8 -30 -1 -11 -10 -45 -19
-75 -9 -30 -17 -62 -17 -70 0 -8 -11 -46 -23 -83 -13 -38 -22 -74 -19 -81 2
-6 -10 -52 -27 -101 -25 -75 -39 -98 -79 -137 -26 -27 -54 -48 -61 -48 -10 0
-10 -3 -1 -12 7 -7 12 -27 12 -45 0 -17 4 -42 9 -55 5 -13 14 -41 21 -63 15
-50 59 -152 78 -182 12 -19 17 -21 35 -12 16 9 23 8 33 -6 23 -31 72 -12 140
53 60 57 84 96 84 133 0 11 -7 22 -15 25 -8 3 -19 21 -25 40 -6 19 -17 34 -24
34 -13 0 -36 55 -36 87 0 11 11 40 24 65 13 25 26 61 27 79 2 19 14 48 27 66
16 21 21 39 17 53 -5 14 -2 20 10 20 11 0 15 8 13 27 -2 16 2 28 10 29 6 1 17
2 22 3 14 2 12 28 -2 34 -9 4 -10 8 -2 14 6 4 19 23 28 40 9 18 28 40 42 49
14 10 23 23 20 30 -3 7 1 18 9 24 8 6 11 18 8 26 -3 8 2 23 12 34 9 10 29 45
44 77 15 32 39 72 53 88 14 17 38 54 54 82 60 109 76 53 73 -262 -6 -552 -4
-656 10 -664 7 -5 11 -14 7 -20 -4 -6 -2 -16 4 -23 62 -74 77 -102 79 -146 1
-26 10 -121 21 -212 19 -156 22 -194 34 -385 3 -44 8 -105 11 -135 3 -30 7
-77 10 -105 2 -27 9 -102 15 -165 6 -63 13 -142 16 -175 2 -33 12 -100 20
-150 9 -49 20 -117 25 -150 5 -33 13 -82 19 -110 6 -27 8 -65 5 -83 -4 -23 -1
-42 10 -58 13 -20 14 -28 4 -40 -6 -8 -9 -14 -5 -14 3 0 -11 -16 -31 -35 -20
-19 -33 -35 -28 -35 5 0 -1 -7 -13 -16 -21 -15 -32 -42 -12 -29 6 3 7 -1 4 -9
-3 -9 -10 -13 -15 -10 -5 3 -12 -1 -15 -9 -3 -8 -19 -17 -35 -21 -39 -7 -57
-46 -42 -87 6 -16 8 -27 3 -24 -4 3 -10 -6 -12 -20 -3 -13 0 -26 6 -29 6 -2 3
-5 -7 -5 -10 -1 -15 -5 -12 -11 3 -5 -1 -10 -10 -10 -9 0 -15 -6 -14 -12 3
-28 -2 -36 -31 -47 -27 -9 -30 -14 -24 -38 11 -49 47 -76 110 -83 61 -7 151 3
197 22 16 6 41 11 57 10 30 -1 66 30 56 47 -7 11 32 91 45 91 5 0 9 6 9 14 0
8 4 16 10 18 5 1 10 18 12 36 3 42 28 67 28 28 0 -32 16 -34 26 -4 4 15 1 25
-11 34 -18 13 -12 39 7 28 14 -9 28 15 28 46 0 14 12 42 26 63 14 21 28 55 31
75 2 20 8 46 13 57 25 62 52 436 41 575 -2 19 -3 115 -2 214 1 108 -3 183 -9
191 -5 6 -7 14 -4 17 3 3 5 63 5 132 -1 70 4 148 10 174 6 26 12 61 14 77 3
17 7 43 11 59 5 19 2 31 -7 37 -11 7 -10 9 4 9 12 0 17 8 17 26 0 15 -8 33
-17 40 -17 13 -17 13 0 14 20 0 23 26 5 33 -8 3 -6 6 5 6 11 1 17 9 17 26 0
14 4 25 8 25 15 0 32 -50 32 -93 0 -24 6 -49 12 -55 9 -9 10 -17 2 -30 -7 -11
-8 -26 -2 -42 5 -13 11 -67 12 -120 4 -107 21 -329 36 -465 11 -100 26 -296
35 -455 4 -57 9 -108 11 -112 3 -4 7 -42 9 -85 8 -129 15 -175 31 -190 8 -8
12 -19 9 -24 -4 -5 5 -14 19 -20 30 -14 35 -24 28 -67 -3 -26 -8 -31 -23 -27
-32 10 -33 -21 -3 -72 16 -27 36 -65 46 -86 21 -45 104 -137 191 -212 58 -49
126 -56 228 -24 l67 21 -4 49 c-4 42 -26 91 -62 134 -5 6 -16 22 -26 37 -17
26 -17 27 2 37 25 13 18 57 -9 64 -11 3 -24 18 -29 34 -11 31 -52 55 -77 46
-10 -4 -23 3 -35 18 -11 13 -17 19 -14 12 4 -7 -1 -9 -16 -5 l-22 5 22 8 c22
8 31 39 12 39 -11 0 -7 65 11 179 8 50 7 66 -3 73 -10 6 -10 10 2 18 12 7 12
12 2 22 -17 17 -15 58 3 58 10 0 15 10 15 33 -1 51 1 77 10 167 16 150 20 380
7 380 -9 0 -9 2 0 8 16 10 33 276 21 321 -6 22 -6 42 0 56 8 17 6 24 -9 33
-16 11 -17 15 -7 35 7 12 19 26 26 30 13 9 17 57 4 57 -4 0 -8 16 -8 35 0 19
3 35 7 35 4 0 8 24 9 53 2 71 13 143 22 140 5 -2 19 7 34 19 l25 23 -23 19
c-13 10 -22 25 -20 33 2 8 -5 21 -15 29 -17 13 -17 13 3 14 11 0 25 -5 32 -12
10 -10 16 -9 28 4 13 13 14 20 4 38 -10 18 -9 24 1 31 11 6 11 11 2 20 -12 12
-8 34 12 59 16 21 1 355 -17 385 -10 17 -31 385 -22 385 1 0 14 -24 29 -52 31
-59 73 -119 92 -131 7 -4 13 -12 13 -18 0 -5 16 -33 36 -61 42 -59 37 -53 105
-136 46 -58 50 -66 40 -88 -17 -38 -14 -65 9 -71 17 -4 20 -14 20 -54 0 -26 4
-50 9 -53 5 -3 9 -17 9 -32 0 -34 19 -45 62 -37 55 11 82 7 99 -16 9 -12 25
-21 36 -19 11 1 37 -2 58 -6 32 -7 44 -5 67 13 16 11 37 21 46 21 12 0 15 5 9
22 -4 13 -8 37 -9 53 -2 17 -6 40 -10 53 -6 18 -4 22 13 22 12 0 23 -1 25 -2
10 -7 46 37 46 55 0 13 77 96 212 229 194 190 215 208 234 198 24 -13 24 -11
-1 -255 -8 -77 -17 -182 -20 -233 -2 -51 -6 -96 -9 -100 -2 -4 -6 -55 -7 -114
-2 -58 -7 -104 -12 -101 -5 3 -5 -16 -2 -41 6 -35 3 -52 -9 -71 -14 -22 -15
-34 -5 -93 12 -68 32 -96 94 -127 21 -11 27 -40 39 -189 3 -33 10 -63 17 -66
7 -5 8 -14 2 -26 -11 -21 -9 -74 7 -204 10 -89 25 -232 35 -360 4 -41 6 -109
6 -150 -2 -127 -1 -134 15 -151 19 -21 32 -67 45 -159 14 -99 37 -193 52 -205
7 -6 20 -24 29 -40 16 -30 16 -32 -21 -96 -21 -36 -43 -79 -48 -95 -8 -23 -15
-28 -34 -26 -22 2 -29 -7 -62 -78 -20 -45 -37 -88 -37 -96 0 -7 16 -31 35 -53
33 -37 37 -38 83 -33 26 2 64 13 84 23 41 21 119 97 139 138 8 14 22 32 31 39
34 25 46 67 41 144 -3 40 -10 78 -17 83 -6 6 -17 23 -24 38 -10 23 -10 31 2
43 8 8 17 14 21 14 23 0 33 33 33 111 0 46 1 86 2 89 0 3 3 75 5 160 8 267 13
393 18 460 4 36 9 108 12 160 4 52 15 156 26 230 10 74 19 141 19 148 0 13 26
17 34 4 3 -5 8 -31 11 -58 4 -27 14 -57 22 -66 9 -10 13 -24 10 -32 -4 -9 -2
-18 3 -21 5 -3 12 -27 15 -53 4 -26 13 -65 22 -87 8 -22 19 -62 23 -90 11 -70
49 -227 59 -246 5 -8 16 -44 25 -80 9 -35 21 -66 26 -67 6 -2 10 -8 10 -13 0
-6 -5 -7 -11 -3 -6 3 -4 -4 4 -17 15 -25 32 -78 28 -93 -1 -4 6 -20 16 -35 9
-14 18 -33 20 -41 9 -64 19 -90 44 -128 16 -24 29 -51 29 -60 0 -9 7 -26 15
-36 8 -11 15 -29 15 -40 0 -11 9 -30 21 -42 32 -34 43 -98 24 -135 -13 -25
-14 -36 -4 -67 34 -107 39 -114 148 -231 50 -54 71 -70 100 -74 20 -3 46 -9
58 -12 17 -6 24 0 38 29 10 20 21 36 25 36 4 0 11 7 14 16 4 10 2 13 -6 8 -7
-5 -9 2 -5 22 6 32 -46 152 -69 161 -8 3 -14 15 -14 28 0 29 -70 115 -94 115
-15 0 -16 3 -7 14 8 10 12 68 12 181 0 133 3 170 14 182 26 25 15 110 -18 134
-10 8 -28 217 -21 246 4 13 2 23 -3 23 -13 0 -42 323 -58 630 -3 58 -8 119
-11 135 -4 25 1 37 29 65 47 48 84 101 89 125 2 14 13 21 38 25 l35 5 -1 110
c-2 115 -9 148 -151 682 -28 106 -35 145 -27 153 18 18 44 -17 113 -154 34
-68 93 -171 131 -229 l70 -105 0 -86 c0 -98 8 -108 61 -82 40 20 49 20 49 0 0
-11 -6 -15 -19 -11 -14 3 -21 -2 -25 -17 -3 -11 -1 -23 5 -24 5 -2 16 -19 23
-37 21 -49 47 -52 103 -13 27 18 50 36 51 41 2 4 10 7 17 7 15 0 28 53 14 58
-5 2 -9 8 -9 13 0 6 -13 24 -30 42 -16 18 -30 35 -30 39 0 5 -66 108 -122 190
-10 15 -18 32 -18 37 0 6 -6 25 -14 43 -8 18 -20 53 -27 78 -7 25 -19 56 -26
70 -7 14 -13 30 -13 36 0 6 -22 63 -49 126 -28 63 -55 146 -62 184 -7 38 -16
73 -20 78 -5 5 10 29 32 53 43 46 47 72 14 87 -38 17 -128 203 -127 262 0 46
27 150 40 156 4 2 16 30 26 63 70 237 86 305 87 365 0 87 -16 219 -30 233 -6
6 -11 34 -11 62 0 28 -7 58 -15 69 -8 11 -15 32 -15 48 0 38 -74 254 -94 274
-18 17 -21 28 -6 19 27 -17 4 14 -46 62 -35 33 -66 53 -80 53 -38 0 -132 105
-145 162 -5 21 -3 25 10 22 9 -3 6 1 -6 7 -13 7 -23 20 -23 29 0 24 -32 50
-62 50 -14 0 -36 8 -49 18 -45 35 -58 34 -249 -5 -14 -3 -33 -13 -43 -21 -9
-8 -32 -15 -49 -15 -18 0 -41 -9 -53 -19 -11 -10 -56 -44 -100 -76 -44 -32
-117 -96 -163 -143 -45 -46 -87 -88 -93 -94 -67 -63 -116 -124 -139 -173 -23
-49 -33 -60 -59 -65 -40 -8 -50 -33 -24 -58 20 -20 20 -20 -4 -102 -13 -45
-32 -154 -43 -242 -16 -141 -16 -170 -4 -235 38 -213 42 -230 91 -318 29 -52
32 -63 19 -68 -9 -3 -16 -12 -16 -20 0 -7 -6 -17 -13 -21 -8 -4 -17 -25 -20
-47 -3 -21 -13 -43 -20 -50 -8 -6 -18 -32 -22 -58 -3 -27 -10 -48 -16 -48 -12
0 -12 -37 1 -45 7 -4 6 -13 -1 -27 -8 -14 -7 -28 1 -49 12 -27 8 -39 -49 -154
-33 -68 -67 -128 -74 -132 -7 -4 -28 -38 -47 -75 -18 -38 -37 -68 -42 -68 -4
0 -8 -9 -8 -19 0 -11 -4 -22 -9 -25 -5 -3 -7 -16 -3 -28 4 -17 2 -20 -15 -16
-16 4 -19 2 -16 -13 4 -13 0 -19 -11 -19 -8 0 -23 -15 -32 -32 -9 -18 -29 -45
-43 -59 -48 -49 -73 -99 -65 -133 7 -27 7 -56 0 -63 -1 -1 -12 0 -24 4 -15 3
-22 13 -22 29 0 59 -37 93 -67 63 -8 -8 -15 -2 -27 22 -9 18 -16 38 -16 45 0
9 -10 11 -36 7 -36 -6 -37 -5 -31 19 5 18 2 28 -8 32 -8 3 -15 13 -15 22 0 9
-8 23 -17 31 -13 10 -15 16 -6 19 10 4 10 11 -2 27 -8 12 -15 27 -15 35 0 7
-7 29 -16 50 -9 20 -16 52 -15 70 2 17 -2 32 -8 32 -6 0 -11 9 -11 20 0 11 -5
20 -11 20 -6 0 -9 6 -6 13 9 25 -31 167 -47 167 -2 0 -2 -9 1 -20 3 -11 1 -20
-5 -20 -13 0 -22 39 -11 46 16 10 8 94 -9 94 -18 0 -41 29 -42 52 0 9 -6 18
-12 20 -8 3 -4 9 10 17 20 11 22 10 22 -14 0 -14 5 -25 10 -25 17 0 11 36 -11
64 -12 15 -23 44 -25 65 -3 33 0 40 19 45 l22 7 -22 11 -22 11 20 16 c28 22
17 79 -21 118 -16 16 -32 42 -36 59 -3 16 -14 40 -22 54 -55 86 -135 252 -135
280 0 8 -9 29 -21 45 -12 17 -27 42 -34 58 -6 15 -22 32 -35 38 -12 6 -28 23
-35 39 -14 31 -34 40 -135 62 -41 10 -70 12 -73 6 -4 -5 -17 -7 -30 -4 -18 5
-26 2 -31 -11 -6 -15 -7 -15 -13 2 -11 32 17 74 55 81 45 8 69 35 63 74 -3 16
-1 30 4 30 4 0 8 9 8 19 0 11 4 22 10 26 5 3 7 12 3 20 -3 10 1 15 11 15 9 0
20 10 25 23 19 45 24 63 28 86 2 14 8 32 14 42 5 10 9 27 9 38 0 12 4 21 9 21
5 0 13 15 16 33 4 17 11 34 15 37 19 14 79 114 85 142 4 18 12 48 18 66 9 25
8 37 -1 52 -15 24 -16 44 -2 35 15 -9 12 19 -5 41 -8 10 -15 29 -15 42 0 12
-9 29 -19 38 -15 13 -17 23 -10 46 9 32 2 88 -12 88 -4 0 -7 42 -6 93 2 83 -1
98 -27 152 -16 33 -29 65 -27 72 1 7 -12 22 -29 34 -16 13 -30 29 -30 36 0 7
-13 19 -30 28 -18 9 -30 23 -30 36 0 12 -12 27 -32 37 -17 9 -39 25 -49 34
-10 10 -30 20 -44 24 -28 7 -31 14 -12 33 10 11 9 13 -6 7 -52 -18 -63 -17
-90 8 -16 14 -29 25 -30 25 -1 -1 -15 -4 -32 -8z m3100 -5371 c-3 -5 -10 -10
-16 -10 -5 0 -9 5 -9 10 0 6 7 10 16 10 8 0 12 -4 9 -10z m-2705 -480 c0 -5
-5 -10 -11 -10 -5 0 -7 5 -4 10 3 6 8 10 11 10 2 0 4 -4 4 -10z m-926 -42 c-3
-5 -10 -6 -15 -3 -5 4 -9 1 -9 -6 0 -7 -3 -10 -6 -6 -9 9 3 24 20 24 8 0 13
-4 10 -9z m847 -15 c13 -17 13 -17 -6 -3 -11 8 -22 16 -24 17 -2 2 0 3 6 3 6
0 17 -8 24 -17z m-786 -3 c3 -5 1 -10 -4 -10 -6 0 -11 5 -11 10 0 6 2 10 4 10
3 0 8 -4 11 -10z m801 -42 c4 -6 3 -8 -4 -4 -5 3 -12 0 -15 -6 -2 -7 -8 -9
-13 -5 -5 4 -2 12 6 17 19 12 17 12 26 -2z m24 -18 c0 -5 -5 -10 -11 -10 -5 0
-7 5 -4 10 3 6 8 10 11 10 2 0 4 -4 4 -10z m-3 -42 c2 -17 0 -19 -7 -8 -5 8
-6 18 -4 22 8 12 10 10 11 -14z m183 -18 c0 -5 -2 -10 -4 -10 -3 0 -8 5 -11
10 -3 6 -1 10 4 10 6 0 11 -4 11 -10z m26 -18 c-17 -16 -18 -16 -5 5 7 12 15
20 18 17 3 -2 -3 -12 -13 -22z m-53 9 c4 -1 7 -6 7 -12 0 -8 -4 -8 -12 -2 -11
8 -33 10 -40 3 -10 -8 -39 -6 -45 2 -3 6 -1 8 5 4 6 -3 13 -2 16 2 4 8 27 8
69 3z m24 -45 c0 -8 -6 -12 -15 -9 -11 5 -11 7 0 14 7 5 13 9 14 9 0 0 1 -6 1
-14z m-1161 -5 c5 -5 24 -11 43 -13 19 -2 36 -11 39 -19 2 -8 0 -10 -5 -4 -4
6 -21 11 -37 13 -34 4 -90 31 -65 32 8 0 19 -4 25 -9z m1099 -32 c-4 -5 -1 -9
6 -9 7 0 10 -3 6 -6 -3 -3 -14 -1 -24 5 -11 6 -13 11 -5 11 7 0 10 5 6 12 -4
7 -3 8 5 4 6 -4 9 -12 6 -17z m69 -3 c-3 -8 -14 -14 -24 -13 -10 1 -16 5 -14
9 3 5 9 6 14 3 5 -3 11 -1 15 5 9 15 15 12 9 -4z m46 8 c0 -8 -19 -13 -24 -6
-3 5 1 9 9 9 8 0 15 -2 15 -3z m-1219 -27 c-10 -9 -11 -8 -5 6 3 10 9 15 12
12 3 -3 0 -11 -7 -18z m185 0 c1 -9 -2 -17 -8 -17 -6 0 -8 6 -5 14 3 8 2 17
-4 20 -5 2 -4 3 2 2 7 -1 13 -10 15 -19z m-234 -4 c-6 -2 -9 -10 -6 -15 4 -7
2 -8 -5 -4 -13 9 -5 26 12 25 9 0 8 -2 -1 -6z m88 -29 c0 -2 -7 -4 -15 -4 -8
0 -15 4 -15 10 0 5 7 7 15 4 8 -4 15 -8 15 -10z m56 4 c4 -7 3 -8 -4 -4 -7 4
-12 2 -12 -5 0 -7 -3 -10 -6 -6 -6 5 3 27 11 27 2 0 7 -5 11 -12z m34 2 c0 -5
-4 -10 -10 -10 -5 0 -10 5 -10 10 0 6 5 10 10 10 6 0 10 -4 10 -10z"/>
<path d="M4105 3980 c-3 -5 3 -10 14 -10 12 0 21 5 21 10 0 6 -6 10 -14 10 -8
0 -18 -4 -21 -10z"/>
<path d="M3530 2930 c0 -5 5 -10 11 -10 5 0 7 5 4 10 -3 6 -8 10 -11 10 -2 0
-4 -4 -4 -10z"/>
</g>
</svg>
